<?xml version="1.0" encoding="UTF-8" standalone="no"?>
<svg
   xmlns:dc="http://purl.org/dc/elements/1.1/"
   xmlns:cc="http://creativecommons.org/ns#"
   xmlns:rdf="http://www.w3.org/1999/02/22-rdf-syntax-ns#"
   xmlns:svg="http://www.w3.org/2000/svg"
   xmlns="http://www.w3.org/2000/svg"
   viewBox="0 0 340.09332 258.64001"
   height="258.64001"
   width="340.09332"
   xml:space="preserve"
   id="svg2"
   version="1.1"><metadata
     id="metadata8"><rdf:RDF><cc:Work
         rdf:about=""><dc:format>image/svg+xml</dc:format><dc:type
           rdf:resource="http://purl.org/dc/dcmitype/StillImage" /></cc:Work></rdf:RDF></metadata><defs
     id="defs6" /><g
     transform="matrix(1.3333333,0,0,-1.3333333,0,258.64)"
     id="g10"><g
       transform="scale(0.1)"
       id="g12"><path
         id="path14"
         style="fill:#414e5b;fill-opacity:1;fill-rule:nonzero;stroke:none"
         d="m 536.559,641.691 c -16.438,-17.16 -47.789,-43.421 -82.305,-50.402 -44.102,-8.269 -72.813,19.723 -72.813,51.691 v 28.641 c 0,39.559 33.852,51.699 74.145,56.117 36.957,3.852 80.973,2.563 80.973,2.563 z M 467.75,904.422 c -58.844,0 -109.355,-23.481 -111.805,-24.82 -5.804,-2.52 -1.941,-11.454 4.5,-26.711 5.668,-14.012 10.828,-21.121 16.493,-18.571 20.523,8.95 54.988,24.918 87.589,24.918 11.493,0 72.032,1.301 72.032,-80.988 l -47.207,-0.68 C 433.199,776.98 322.125,771.23 322.125,678.109 V 646.18 c 0,-61.309 46.461,-101.41 116.188,-101.41 36.375,0 72.808,17.789 99.05,48.48 0,-17.262 0,-37.051 0,-37.051 0,-6.34 17.215,-6.34 29.992,-6.34 12.774,0 30.016,0 30.016,6.34 V 776.98 c 0,97.571 -58.781,127.442 -129.621,127.442 z M 882.207,627.691 C 869.488,571.488 819.059,544.77 758.324,544.77 c -60.703,0 -109.933,29.929 -115.574,35.109 -5.25,4.43 1.137,15.223 6.25,25.473 5.137,10.199 11.523,21.597 17.355,18.539 26.852,-15.422 56.149,-33.809 89.997,-33.809 30.718,0 55.711,6.949 65.207,38.199 9.578,31.231 -7.637,54.86 -34.489,65.778 l -79.226,31.152 c -40.27,16.019 -64.508,52.359 -58.844,95.027 9.023,66.473 62.035,84.184 111.238,84.184 45.325,0 86.926,-15.902 99.559,-20.973 6.527,-2.508 2.641,-15.898 -1.192,-26.808 -3.808,-10.801 -10.222,-23.59 -16.027,-21.051 -10.801,4.488 -45.289,23.648 -78.558,23.648 -19.079,0 -47.207,-1.91 -56.176,-27.468 -6.528,-18.54 -0.672,-40.211 26.797,-50.989 L 819.059,747.5 c 49.148,-19.141 76.617,-61.82 63.148,-119.809 z M 1964.16,1014.19 v -48.428 c 0,-6.375 -18.5,-9.578 -31.24,-9.578 -12.8,0 -31.96,3.203 -31.96,9.578 v 48.428 c 0,6.49 19.82,8.33 32.59,8.33 12.78,0 30.61,-1.84 30.61,-8.33 z M 1455.15,681.25 c 0,-60.602 -30.05,-91.168 -75.35,-91.168 -44.73,0 -83.72,26.688 -83.72,93.059 v 90.648 c 0,33.77 38.99,85.449 86.22,85.449 36.44,0 72.85,-16.66 72.85,-80.347 z m -65.77,223.172 c -27.43,-1.293 -65.22,-6.902 -93.3,-48.391 v 36.25 c 0,6.508 -17.83,6.508 -30.68,6.508 -12.67,0 -30.58,0 -30.58,-6.508 V 424.129 c 0,-6.348 17.91,-6.348 30.58,-6.348 12.85,0 30.68,0 30.68,6.348 v 156.902 c 21.08,-20.949 49.2,-36.261 83.72,-36.261 91.31,0 139.29,52.902 139.29,139.691 v 81.57 c 0,86.86 -40.96,142.949 -129.71,138.391 z M 1209.91,892.281 1032.33,424.129 c -2.58,-6.348 -14.14,-6.348 -29.94,-6.348 -16.105,0 -30.824,0 -28.21,6.348 l 46.65,130.859 -124.576,337.293 c -2.582,6.508 16.605,6.508 32.601,6.508 15.946,0 30.075,0 32.524,-6.508 L 1051.44,637.27 c 1.99,-5.2 2.63,-12.18 2.63,-12.18 0,0 0.58,6.98 2.44,12.18 l 89.53,255.011 c 2.5,6.508 19.17,6.508 31.93,6.508 12.81,0 34.55,0 31.94,-6.508 z m 1029.05,-264.59 c -12.8,-56.203 -63.23,-82.921 -123.96,-82.921 -60.79,0 -109.99,29.929 -115.74,35.109 -5.08,4.43 1.38,15.223 6.41,25.473 5.17,10.199 11.62,21.597 17.19,18.539 26.92,-15.422 56.32,-33.809 90.2,-33.809 30.68,0 55.59,6.949 65.01,38.199 9.8,31.231 -7.56,54.86 -34.33,65.778 l -79.26,31.152 c -40.17,16.019 -64.61,52.359 -58.81,95.027 8.94,66.473 61.93,84.184 111.24,84.184 45.33,0 86.96,-15.902 99.56,-20.973 6.5,-2.539 2.61,-15.898 -1.23,-26.808 -3.82,-10.801 -10.18,-23.59 -15.98,-21.051 -10.81,4.488 -45.28,23.648 -78.57,23.648 -19.08,0 -47.23,-1.91 -56.21,-27.468 -6.43,-18.54 -0.63,-40.211 26.92,-50.989 l 84.33,-33.281 c 49.15,-19.141 76.64,-61.82 63.23,-119.809 z m -276.03,264.59 V 556.199 c 0,-6.34 -17.88,-6.34 -30.65,-6.34 -12.78,0 -30.55,0 -30.55,6.34 v 336.082 c 0,6.508 18.39,6.508 31.19,6.508 12.74,0 30.01,0 30.01,-6.508 z m -192.77,-250.59 c -16.71,-17.16 -47.98,-43.421 -82.45,-50.402 -44.1,-8.269 -72.87,19.723 -72.87,51.691 v 28.641 c 0,39.559 33.88,51.699 74.07,56.117 37.15,3.852 81.25,2.563 81.25,2.563 z m -69.07,262.731 c -58.86,0 -109.21,-23.512 -111.82,-24.82 -5.7,-2.52 -1.92,-11.454 4.53,-26.711 5.69,-14.051 10.91,-21.121 16.63,-18.629 20.38,9.008 54.84,24.976 87.47,24.976 11.45,0 72.26,1.301 72.26,-80.988 l -47.32,-0.68 c -56.26,-0.59 -167.45,-6.34 -167.45,-99.461 V 646.18 c 0,-61.309 46.65,-101.41 116.3,-101.41 36.41,0 72.81,17.789 99.05,48.48 0,-17.262 0,-37.051 0,-37.051 0,-6.34 17.28,-6.34 30.05,-6.34 12.67,0 29.93,0 29.93,6.34 V 776.98 c 0,97.571 -58.7,127.442 -129.63,127.442 z m 787.03,-262.731 c -16.78,-17.16 -48.05,-43.421 -82.51,-50.402 -44.08,-8.269 -72.76,19.723 -72.76,51.691 v 28.641 c 0,39.559 33.83,51.699 74.03,56.117 37.05,3.852 81.24,2.563 81.24,2.563 z m -69.1,262.731 c -58.79,0 -109.3,-23.512 -111.8,-24.82 -5.8,-2.52 -1.86,-11.454 4.39,-26.711 5.83,-14.051 10.97,-21.121 16.63,-18.629 20.58,9.008 55.04,24.976 87.62,24.976 11.51,0 72.26,1.301 72.26,-80.988 l -47.3,-0.68 c -56.23,-0.59 -167.48,-6.34 -167.48,-99.461 V 646.18 c 0,-61.309 46.57,-101.41 116.36,-101.41 36.29,0 72.72,17.789 98.99,48.48 0,-17.262 0,-37.051 0,-37.051 0,-6.34 17.28,-6.34 30.02,-6.34 12.86,0 29.99,0 29.99,6.34 V 776.98 c 0,97.571 -58.76,127.442 -129.68,127.442 z M 226.266,746.371 H 64.5898 v 35.75 c 0,44.57 33.2735,77.117 83.1132,77.117 41.57,0 78.563,-33.207 78.563,-79.187 z M 147.148,904.422 C 69.6992,904.422 1.99609,856.641 1.99609,777.57 V 674.191 c 0,-79.089 68.98051,-129.421 143.17991,-129.421 31.246,0 79.84,1.261 128.433,34.402 5.141,3.848 1.278,14.078 -3.859,25.558 -5.219,11.379 -11.605,20.36 -17.355,17.192 -37.598,-21.024 -63.122,-31.84 -107.219,-31.84 -42.125,0 -79.2776,32.387 -79.2776,77.867 V 701 H 288.219 v 77.891 c 0,93.718 -65.231,125.531 -141.071,125.531" /><path
         id="path16"
         style="fill:#9acb21;fill-opacity:1;fill-rule:nonzero;stroke:none"
         d="m 567.523,1460.09 c 0,0 200.661,14.27 264.864,154.38 40.242,87.76 -17.328,145.55 -85.36,138.28 -85.781,-8.99 -231.601,-88.1 -179.504,-292.66 z m 572.687,-296.3 c -48.65,-36.52 -108.08,-65.11 -179.472,-86.15 -67.785,-19.85 -135.129,-25.08 -200.75,-20.67 -82.054,5.69 -157.199,32.76 -225.343,81.63 -69.758,49.86 -119.547,113.16 -150.122,189.44 C 249.809,1346.9 93.6914,1430.59 0,1515.01 c 116.465,-43.13 253.648,-68.63 355.449,-59.62 -14.437,71.26 8.469,209.07 76.114,303.66 71.812,100.51 167.367,171.25 290.55,179.55 194.551,13.22 283.827,-88.26 310.687,-156.5 93.8,-237.62 -134.155,-469.71 -406.323,-467.72 26.519,-46.32 75.558,-97.13 168.089,-132.73 86.61,-33.04 223.074,-38.22 345.644,-17.86 z m 865.66,485.78 c -606.68,82.37 -575.44,-343.75 -851.64,-483.62 280.89,-19.67 608.68,107.84 851.64,483.62 z m 544.8,-126.82 c -295.18,-328.21 -511.09,-80.17 -744.02,-137.34 155.37,130.81 404.38,215.8 744.02,137.34" /><path
         id="path18"
         style="fill:#9acb21;fill-opacity:1;fill-rule:evenodd;stroke:none"
         d="m 216.016,61.0117 c -12.578,1.7383 -35.934,1.9688 -42.653,15.3477 0,48.6016 28.02,60.3006 66.95,82.8206 2.753,2.73 5.527,5.461 8.222,7.949 0.473,9.121 1.918,51.32 17.133,48.101 0.941,-2.699 0.941,-21.82 2.723,-31.691 6.218,-17.359 20.3,-22.578 37.656,-14.437 -0.5,10.98 -2.223,18.296 -2.223,24.769 2.746,8.258 5.692,16.418 8.719,24.359 0,0 1.668,0 2.75,0 0.973,-7.73 2.164,-15.398 3.418,-23.582 7.91,-26.539 12.465,-29.257 42.621,-25.019 -2.469,7.16 -6.219,13.582 -10.91,19.281 0,11.442 4.969,20.629 10,30.551 1.441,0 2.859,0 4.605,-0.242 17.383,-26.309 12.746,-51.11 -1.14,-76.387 -14.41,-8.684 -32.039,-9.191 -45.926,1.508 -2.945,3.98 -2.945,3.98 -5.223,4.93 -1.195,-15.122 -44.101,-23.301 -54.593,0.261 -4.692,-10.429 -12.305,-16.121 -21.774,-21.34 -15.16,-8.203 -30.047,-15.121 -43.098,-26.793 3.086,-4.9292 16.024,-5.9878 21.77,-6.4488 L 556.305,92.4414 C 550.586,78.832 543.145,67.9219 533.176,61.2109 l -317.16,-0.1992" /><path
         id="path20"
         style="fill:#9acb21;fill-opacity:1;fill-rule:evenodd;stroke:none"
         d="M 2316.66,-0.0117188 C 2306.55,3.96875 2296.84,11.4102 2288.4,18.1211 c 7.49,8.168 16.9,24.4805 20.29,25.9805 8.45,-5.1719 17.47,-11.8907 26.11,-17.1602 1.71,-9.1016 -9.98,-23.92187 -18.14,-26.9531188" /><path
         id="path22"
         style="fill:#9acb21;fill-opacity:1;fill-rule:evenodd;stroke:none"
         d="m 1709.12,30.9688 c 1.51,-1.9571 100.92,30.7695 112.34,57.0507 0,18.0585 -5.48,29.4495 -17.84,41.9415 0.47,2.91 10.61,26.738 18.33,29.738 24.3,-41.179 14.19,-101.6599 -19.33,-126.7107 -26.82,-19.8789 -54.31,-14.3399 -93.5,-2.0195" /><path
         id="path24"
         style="fill:#9acb21;fill-opacity:1;fill-rule:evenodd;stroke:none"
         d="m 1211.22,97.8906 c -3.25,42.9494 12.3,67.5004 37.87,80.1214 38.27,18.898 98.48,10.386 147.63,-3.032 -2.98,-12.851 -7.53,-24.011 -14.16,-32.898 -29.78,14.617 -99.75,22.848 -137.88,5.469 -29.05,-12.903 -25.58,-34.481 -5,-55.3518 53.57,-54.7578 216.96,-29.2187 262.12,1.5117 19.79,23.7581 -50.51,29.3201 -61.46,29.5701 -1.55,12.789 1.95,25.489 3.95,31.449 13.41,-2.75 38.42,-0.519 43.9,11.161 -12.66,27.519 -48.6,33.289 -56.31,32.98 0,16.629 4.44,27.75 13.1,40.891 22.64,10.437 114.63,60.008 141.43,67.539 0,-14.699 -9.72,-30.332 -17.88,-34.551 -34.71,-17.328 -97.75,-47.078 -98.23,-48.328 34.93,-18.641 37,-43.192 29.78,-73.453 38.68,-25.539 15.35,-76.3596 -16.61,-93.7073 -59.76,-32.75 -178.26,-45.3906 -239.54,-5.6601 -19.88,12.8672 -25.49,24.7578 -32.71,46.289" /><path
         id="path26"
         style="fill:#9acb21;fill-opacity:1;fill-rule:evenodd;stroke:none"
         d="m 1168.04,36.4297 c -4.26,23.332 0.97,111.8903 -0.53,155.2813 -0.47,23.23 2.53,29.449 16.16,50.019 0.5,0.821 1,0.821 1.72,0 7.16,-54.332 1.72,-108.589 0.72,-158.9097 -1.72,-13.1211 -4.22,-32.2305 -18.07,-46.3906" /><path
         id="path28"
         style="fill:#9acb21;fill-opacity:1;fill-rule:evenodd;stroke:none"
         d="m 2125.74,48.1094 c 1.7,-5.25 97.95,46.3594 102.92,66.1916 -7.63,18.84 -17.38,37.679 -28.83,54.531 0.81,9.918 0.53,21.09 4.28,32.219 9.42,-0.461 24.02,-35.379 36.74,-65.422 10.39,-24.059 10.39,-40.3477 37.16,-42.129 25.24,-1.75 52.34,0 77.36,0 2.5,0.2109 4.97,0.2109 7.7,1.7813 3.41,12.5587 -15.64,25.9687 -23.53,31.4297 1.42,10.937 4.42,20.578 7.39,31.238 37.74,-3.929 34.24,-72.1404 22.1,-93.2185 -32.52,-8.4219 -68.25,-5.461 -102.21,-4 -23.55,1.0078 -26.58,30.2383 -29.55,32.2187 -24.44,-51.789 -60.9,-65.6992 -111.53,-44.8398" /><path
         id="path30"
         style="fill:#9acb21;fill-opacity:1;fill-rule:evenodd;stroke:none"
         d="m 902.227,104.57 c -0.805,40.231 -1,82.121 -3.028,121.821 1.281,3.461 17.387,32.988 18.356,31.929 0.75,-42.582 1.972,-93.191 1.277,-137.351 0,-10.438 -2.246,-20.59 8.391,-27.2581 14.437,-9.2109 42.621,-4.4921 59.73,-3.1992 0.473,1.6875 0.274,2.7071 -0.473,8.1367 3.778,9.9726 7.497,18.6136 13.94,26.7816 0.75,0.8 1.69,2 2.47,-1.219 0.94,-9.91 1.45,-21.07 5.17,-30.211 9.94,-7.4297 32.24,-3.0312 43.38,-1.8008 -1.2,13.1798 4.52,25.2698 10.21,36.6988 1.72,1.274 3.19,2.032 4.7,-0.218 0.96,-3.481 0.96,-4.961 4.22,-31.9808 9.91,-11.6679 34.23,-4.2578 48.09,-3.4804 -1.47,16.1602 -10.41,25.3012 -17.55,30.7032 3.17,10.226 8.67,21.129 11.64,29.828 32.76,-12.129 24.99,-70.4492 12.38,-89.7617 -15.88,-4.9766 -42.43,-7.1602 -59.01,-3.2578 -4.97,4.4609 -4.97,4.4609 -8.44,8.6914 -2.22,-3.2617 -2.69,-5.4336 -8.44,-8.6914 -14.14,-1.25 -39.88,-4.7188 -53.818,1.5312 -2.164,4.1797 -4.442,8.168 -6.66,12.1602 -3.227,-6.9531 -5.032,-12.1602 -12.668,-14.1719 -43.621,-2.7187 -72.918,-6.9492 -73.867,44.32" /><path
         id="path32"
         style="fill:#9acb21;fill-opacity:1;fill-rule:evenodd;stroke:none"
         d="m 1852.25,61.4805 c -12.45,6.1914 2.44,32.9883 8.16,40.1915 1.69,0.758 6.45,6.949 19.33,18.058 12.16,8.461 25,15.899 37.93,23.102 0.97,22.297 -1.27,82.609 -0.75,104.867 1.53,3.031 16.36,32.531 17.1,32.531 7.73,-25.351 2.73,-98.21 3.75,-124.218 -2.71,-12.641 -9.65,-28.801 -24.26,-39.231 -29.77,-16.402 -29.77,-18.8904 -36.49,-23.5622 0,-0.5 0,-1.0196 0,-1.75 l 271.5,-2.25 c 0,-6.9297 -11.58,-25.5704 -17.08,-28.7383 -90.28,1.2578 -204.86,-2.211 -279.19,1" /><path
         id="path34"
         style="fill:#9acb21;fill-opacity:1;fill-rule:evenodd;stroke:none"
         d="m 1115.19,248.48 c -0.75,31.93 33.24,48.34 47.6,48.34 29.57,-12.41 64.78,-10.64 89.3,11.668 3.7,2.211 4.22,2.211 5.31,-2.238 -12.22,-48.379 -77.7,-55.52 -107.75,-40.66 -17.3,-0.27 -25.52,-8.969 -34.46,-17.11" /><path
         id="path36"
         style="fill:#9acb21;fill-opacity:1;fill-rule:evenodd;stroke:none"
         d="m 1432.65,252.629 c 0.48,15.402 5.48,26.832 10.16,32.75 l 130.61,64.781 c -0.51,-9.711 -9.58,-29.082 -16.03,-35.48 -30.83,-14.129 -107.85,-54.578 -124.74,-62.051" /><path
         id="path38"
         style="fill:#9acb21;fill-opacity:1;fill-rule:evenodd;stroke:none"
         d="m 1814.23,175.77 c -10.14,3.992 -19.8,11.492 -28.29,18.101 7.52,8.258 16.96,24.578 20.38,26.27 8.44,-5.2 17.63,-12.141 26.32,-17.309 1.7,-9.152 -10.19,-24.082 -18.41,-27.062" /><path
         id="path40"
         style="fill:#9acb21;fill-opacity:1;fill-rule:evenodd;stroke:none"
         d="m 1516.18,48.1094 c 2,-5.25 97.94,46.3594 102.94,66.1916 -7.69,18.84 -17.32,37.679 -28.74,54.531 0.72,9.918 0.72,21.09 4.17,32.219 9.43,-0.461 24.04,-35.379 36.91,-65.422 10.18,-24.059 10.46,-40.3477 37.01,-42.129 25.49,-1.75 52.52,0 77.36,0 2.48,0.2109 4.95,0.2109 7.64,1.7813 3.5,12.5587 -15.61,25.9687 -23.55,31.4297 1.51,10.937 4.47,20.578 7.47,31.238 37.66,-3.929 34.21,-72.1404 22.13,-93.2185 -32.32,-8.4219 -68.01,-5.461 -102.05,-4 -23.71,1.0078 -26.41,30.2383 -29.69,32.2187 -24.32,-51.789 -61,-65.6992 -111.6,-44.8398" /><path
         id="path42"
         style="fill:#9acb21;fill-opacity:1;fill-rule:evenodd;stroke:none"
         d="m 1687.05,165.391 c -10.19,3.988 -19.85,11.398 -28.27,18.089 7.41,8.231 16.93,24.809 20.35,26.29 8.39,-5.2 17.58,-12.122 26.27,-17.348 1.75,-9.211 -10.17,-24.09 -18.35,-27.031" /><path
         id="path44"
         style="fill:#9acb21;fill-opacity:1;fill-rule:evenodd;stroke:none"
         d="m 572.578,100.379 c -3.387,42.992 12.496,67.492 38.012,79.84 38.437,19.211 98.668,10.711 147.816,-2.899 -2.996,-12.679 -7.492,-23.808 -14.187,-32.789 -29.766,14.649 -99.723,22.598 -138.125,5.457 -29.02,-12.859 -25.547,-34.687 -4.942,-55.5192 53.844,-54.8282 216.993,-29.0391 262.364,1.7304 19.8,23.7888 -50.594,29.2308 -61.453,29.4728 -1.528,13 1.945,25.598 3.882,31.566 14.422,-3.027 34.246,-1.039 45.133,10.082 -8.582,21.078 -29.496,25.102 -40.16,26.36 0.754,12.101 4.504,21.55 9.695,32.5 28.774,-1.532 42.125,-17.129 45.153,-35.989 1.945,-12.382 -1.278,-24.8 -3.969,-36.679 C 900.48,127.68 877.148,77.082 845.16,59.4805 785.152,27.0195 666.852,14.3516 605.348,54.0195 585.52,66.9102 579.824,78.832 572.578,100.379" /><path
         id="path46"
         style="fill:#9acb21;fill-opacity:1;fill-rule:evenodd;stroke:none"
         d="m 791.344,223.941 c -10.192,3.911 -19.606,11.321 -28.02,18.079 7.442,8.179 16.61,24.539 20.352,26.269 8.418,-5.18 17.39,-12.117 26.027,-17.359 1.719,-9.2 -10.195,-24.032 -18.359,-26.989" /></g></g>
</svg>